<?xml version="1.0" encoding="UTF-8"?>
<svg version="1.1" xmlns="http://www.w3.org/2000/svg" width="768" height="768">
    <path
        d="M0 0 C5.1998308 0.00688399 10.39963335 -0.00373626 15.59945822 -0.01193976 C25.74645265 -0.02518115 35.89337999 -0.0224426 46.0403769 -0.01370184 C54.29748262 -0.00688753 62.55456972 -0.00602464 70.81167746 -0.00927329 C72.58396852 -0.00996284 72.58396852 -0.00996284 74.39206344 -0.01066632 C76.79337001 -0.01162563 79.19467658 -0.01259827 81.59598315 -0.01358409 C104.03860059 -0.02210988 126.4811811 -0.01234821 148.92379248 0.00381701 C168.12157722 0.0172176 187.31930751 0.01488872 206.51709127 0.00106072 C228.88715366 -0.01504502 251.25718378 -0.02128617 273.62725115 -0.01210248 C276.0190285 -0.01114698 278.41080586 -0.01020386 280.80258322 -0.00927329 C281.97895104 -0.00881046 283.15531886 -0.00834764 284.36733419 -0.00787079 C292.60098718 -0.00529583 300.83461947 -0.00961938 309.06826925 -0.01671195 C319.12169602 -0.02518292 329.17505264 -0.0227305 339.22847152 -0.00686972 C344.34394718 0.00093848 349.45930651 0.0042343 354.57478094 -0.00581717 C413.2255635 -0.11106481 467.98011027 7.87023405 511.43213034 50.57967401 C523.13238876 62.39137781 532.24693527 75.62419728 539.80713034 90.39217401 C540.12520651 91.00915154 540.44328268 91.62612908 540.77099752 92.26180291 C547.82417185 106.12862371 552.41601237 120.48305596 555.55713034 135.70467401 C555.75580709 136.65068475 555.95448385 137.59669549 556.15918112 138.57137322 C560.60161653 161.44591857 560.10405228 184.58656289 560.08323872 207.77258432 C560.0807493 212.97730632 560.08981296 218.18201112 560.09727621 223.38672662 C560.10996493 233.55806068 560.11182416 243.72936827 560.10947595 253.90070892 C560.10768582 262.1780024 560.10945726 270.4552879 560.11370039 278.73258042 C560.11429558 279.91505623 560.11489077 281.09753203 560.11550399 282.31584043 C560.11671587 284.71883774 560.11793001 287.12183505 560.11914637 289.52483236 C560.12999979 312.01414479 560.12787005 334.5034422 560.12176152 356.99275547 C560.11659621 377.51021157 560.12784159 398.02762014 560.14685974 418.54506684 C560.16629141 439.6725832 560.17448471 460.80007713 560.17073649 481.92760247 C560.16883227 493.7648696 560.17123534 505.60209631 560.18545103 517.43935609 C560.19743409 527.51856642 560.19869294 537.59771146 560.18666086 547.67692281 C560.18081993 552.80652992 560.17953788 557.93601804 560.19166327 563.06561685 C560.32061999 621.80334648 552.35839894 676.73457109 509.43213034 720.14217401 C466.30023527 762.79434122 410.25032803 768.89702028 352.54658127 768.78434801 C347.31948525 768.77746959 342.09241747 768.78808161 336.86532736 768.79628778 C326.66305189 768.8095349 316.46084313 768.80678799 306.25856519 768.79804985 C297.95709059 768.79123785 289.65563452 768.79037167 281.35415792 768.7936213 C279.57290446 768.79431085 279.57290446 768.79431085 277.75566608 768.79501433 C275.34227824 768.79597363 272.9288904 768.79694628 270.51550257 768.7979321 C247.95560424 768.80645957 225.39574266 768.79669354 202.83585036 768.780531 C183.53426645 768.76713025 164.2327367 768.76945909 144.93115377 768.78328729 C122.4446459 768.79939002 99.95817011 768.80563584 77.47165728 768.7964505 C75.06780577 768.79549498 72.66395426 768.79455187 70.26010275 768.7936213 C69.07777101 768.79315848 67.89543927 768.79269565 66.67727929 768.7922188 C58.39858443 768.78964295 50.11991015 768.79396936 41.84121847 768.80105996 C31.73394024 768.80952755 21.62673177 768.80708544 11.51946139 768.79121773 C6.37576305 768.78340509 1.23218047 768.78012161 -3.91151667 768.79016519 C-60.47981116 768.89108207 -114.48705556 761.764219 -156.76904154 720.7647326 C-158.02311573 719.5558154 -159.3015416 718.37226829 -160.58349466 717.19295526 C-172.23431358 706.19173236 -180.93360966 692.57230849 -188.19286966 678.39217401 C-188.51094584 677.77519647 -188.82902201 677.15821893 -189.15673685 676.5225451 C-196.20991118 662.6557243 -200.80175169 648.30129205 -203.94286966 633.07967401 C-204.14154642 632.13366326 -204.34022318 631.18765252 -204.54492044 630.21297479 C-208.98204171 607.36579254 -208.48981679 584.25458875 -208.46897805 561.09630668 C-208.46648854 555.90385472 -208.47555239 550.71141999 -208.48301554 545.51897454 C-208.49570402 535.37170393 -208.49756352 525.22445985 -208.49521527 515.07718264 C-208.49342512 506.81943531 -208.49519664 498.56169597 -208.49943972 490.30394959 C-208.50003491 489.12424915 -208.50063009 487.94454871 -208.50124332 486.72909977 C-208.5024552 484.33173946 -208.50366933 481.93437915 -208.5048857 479.53701884 C-208.51573902 457.10064152 -208.51360942 434.66427927 -208.50750085 412.22790111 C-208.50233555 391.75894391 -208.5135809 371.29003436 -208.53259907 350.82108658 C-208.55203095 329.74329076 -208.560224 308.66551741 -208.55647582 287.58771259 C-208.55457163 275.7783911 -208.55697435 263.96911012 -208.57119036 252.159796 C-208.58317369 242.10437419 -208.58443196 232.04901782 -208.57240019 221.993595 C-208.56655944 216.87613938 -208.56527666 211.75880304 -208.57740259 206.64135575 C-208.64191826 177.3570716 -207.94212366 148.85808692 -200.19286966 120.39217401 C-200.01562357 119.72540643 -199.83837748 119.05863885 -199.65576029 118.37166619 C-195.04818031 101.53899375 -186.7510059 84.2879029 -176.19286966 70.39217401 C-175.54833841 69.54010369 -174.90380716 68.68803338 -174.23974466 67.81014276 C-169.51051391 61.74965216 -164.42859641 56.01740984 -159.19286966 50.39217401 C-158.19900248 49.29969354 -158.19900248 49.29969354 -157.18505716 48.18514276 C-115.95740188 4.68447986 -56.23008368 -0.11048742 0 0 Z "
        fill="#D94969" transform="translate(208.19286966323853,-0.39217400550842285)" />
    <path
        d="M0 0 C5.1998308 0.00688399 10.39963335 -0.00373626 15.59945822 -0.01193976 C25.74645265 -0.02518115 35.89337999 -0.0224426 46.0403769 -0.01370184 C54.29748262 -0.00688753 62.55456972 -0.00602464 70.81167746 -0.00927329 C72.58396852 -0.00996284 72.58396852 -0.00996284 74.39206344 -0.01066632 C76.79337001 -0.01162563 79.19467658 -0.01259827 81.59598315 -0.01358409 C104.03860059 -0.02210988 126.4811811 -0.01234821 148.92379248 0.00381701 C168.12157722 0.0172176 187.31930751 0.01488872 206.51709127 0.00106072 C228.88715366 -0.01504502 251.25718378 -0.02128617 273.62725115 -0.01210248 C276.0190285 -0.01114698 278.41080586 -0.01020386 280.80258322 -0.00927329 C281.97895104 -0.00881046 283.15531886 -0.00834764 284.36733419 -0.00787079 C292.60098718 -0.00529583 300.83461947 -0.00961938 309.06826925 -0.01671195 C319.12169602 -0.02518292 329.17505264 -0.0227305 339.22847152 -0.00686972 C344.34394718 0.00093848 349.45930651 0.0042343 354.57478094 -0.00581717 C413.2255635 -0.11106481 467.98011027 7.87023405 511.43213034 50.57967401 C523.13238876 62.39137781 532.24693527 75.62419728 539.80713034 90.39217401 C540.12520651 91.00915154 540.44328268 91.62612908 540.77099752 92.26180291 C547.82417185 106.12862371 552.41601237 120.48305596 555.55713034 135.70467401 C555.75580709 136.65068475 555.95448385 137.59669549 556.15918112 138.57137322 C560.60161653 161.44591857 560.10405228 184.58656289 560.08323872 207.77258432 C560.0807493 212.97730632 560.08981296 218.18201112 560.09727621 223.38672662 C560.10996493 233.55806068 560.11182416 243.72936827 560.10947595 253.90070892 C560.10768582 262.1780024 560.10945726 270.4552879 560.11370039 278.73258042 C560.11429558 279.91505623 560.11489077 281.09753203 560.11550399 282.31584043 C560.11671587 284.71883774 560.11793001 287.12183505 560.11914637 289.52483236 C560.12999979 312.01414479 560.12787005 334.5034422 560.12176152 356.99275547 C560.11659621 377.51021157 560.12784159 398.02762014 560.14685974 418.54506684 C560.16629141 439.6725832 560.17448471 460.80007713 560.17073649 481.92760247 C560.16883227 493.7648696 560.17123534 505.60209631 560.18545103 517.43935609 C560.19743409 527.51856642 560.19869294 537.59771146 560.18666086 547.67692281 C560.18081993 552.80652992 560.17953788 557.93601804 560.19166327 563.06561685 C560.32061999 621.80334648 552.35839894 676.73457109 509.43213034 720.14217401 C466.30023527 762.79434122 410.25032803 768.89702028 352.54658127 768.78434801 C347.31948525 768.77746959 342.09241747 768.78808161 336.86532736 768.79628778 C326.66305189 768.8095349 316.46084313 768.80678799 306.25856519 768.79804985 C297.95709059 768.79123785 289.65563452 768.79037167 281.35415792 768.7936213 C279.57290446 768.79431085 279.57290446 768.79431085 277.75566608 768.79501433 C275.34227824 768.79597363 272.9288904 768.79694628 270.51550257 768.7979321 C247.95560424 768.80645957 225.39574266 768.79669354 202.83585036 768.780531 C183.53426645 768.76713025 164.2327367 768.76945909 144.93115377 768.78328729 C122.4446459 768.79939002 99.95817011 768.80563584 77.47165728 768.7964505 C75.06780577 768.79549498 72.66395426 768.79455187 70.26010275 768.7936213 C69.07777101 768.79315848 67.89543927 768.79269565 66.67727929 768.7922188 C58.39858443 768.78964295 50.11991015 768.79396936 41.84121847 768.80105996 C31.73394024 768.80952755 21.62673177 768.80708544 11.51946139 768.79121773 C6.37576305 768.78340509 1.23218047 768.78012161 -3.91151667 768.79016519 C-60.47981116 768.89108207 -114.48705556 761.764219 -156.76904154 720.7647326 C-158.02311573 719.5558154 -159.3015416 718.37226829 -160.58349466 717.19295526 C-172.23431358 706.19173236 -180.93360966 692.57230849 -188.19286966 678.39217401 C-188.51094584 677.77519647 -188.82902201 677.15821893 -189.15673685 676.5225451 C-196.20991118 662.6557243 -200.80175169 648.30129205 -203.94286966 633.07967401 C-204.14154642 632.13366326 -204.34022318 631.18765252 -204.54492044 630.21297479 C-208.98204171 607.36579254 -208.48981679 584.25458875 -208.46897805 561.09630668 C-208.46648854 555.90385472 -208.47555239 550.71141999 -208.48301554 545.51897454 C-208.49570402 535.37170393 -208.49756352 525.22445985 -208.49521527 515.07718264 C-208.49342512 506.81943531 -208.49519664 498.56169597 -208.49943972 490.30394959 C-208.50003491 489.12424915 -208.50063009 487.94454871 -208.50124332 486.72909977 C-208.5024552 484.33173946 -208.50366933 481.93437915 -208.5048857 479.53701884 C-208.51573902 457.10064152 -208.51360942 434.66427927 -208.50750085 412.22790111 C-208.50233555 391.75894391 -208.5135809 371.29003436 -208.53259907 350.82108658 C-208.55203095 329.74329076 -208.560224 308.66551741 -208.55647582 287.58771259 C-208.55457163 275.7783911 -208.55697435 263.96911012 -208.57119036 252.159796 C-208.58317369 242.10437419 -208.58443196 232.04901782 -208.57240019 221.993595 C-208.56655944 216.87613938 -208.56527666 211.75880304 -208.57740259 206.64135575 C-208.64191826 177.3570716 -207.94212366 148.85808692 -200.19286966 120.39217401 C-200.01562357 119.72540643 -199.83837748 119.05863885 -199.65576029 118.37166619 C-195.04818031 101.53899375 -186.7510059 84.2879029 -176.19286966 70.39217401 C-175.54833841 69.54010369 -174.90380716 68.68803338 -174.23974466 67.81014276 C-169.51051391 61.74965216 -164.42859641 56.01740984 -159.19286966 50.39217401 C-158.19900248 49.29969354 -158.19900248 49.29969354 -157.18505716 48.18514276 C-115.95740188 4.68447986 -56.23008368 -0.11048742 0 0 Z M-28.19286966 126.39217401 C-28.78712748 126.73329217 -29.38138529 127.07441033 -29.99365091 127.42586541 C-60.97852268 145.54256467 -82.36456459 173.88663353 -94.19286966 207.39217401 C-94.44407572 208.10309197 -94.69528177 208.81400994 -94.95410013 209.54647088 C-100.99255076 227.12963455 -103.25665796 245.51357152 -104.29174662 264.00106072 C-104.33418706 264.74391564 -104.3766275 265.48677056 -104.42035401 266.25213623 C-105.48833986 285.43295988 -105.47011986 304.61227624 -105.42858911 323.81688952 C-105.41958626 328.88884743 -105.42157025 333.96080421 -105.42194986 339.03276849 C-105.42102268 347.5358871 -105.41246906 356.03896935 -105.39868021 364.54207635 C-105.38295495 374.27320513 -105.37768312 384.00429431 -105.37841576 393.73543489 C-105.37909924 404.244891 -105.37211705 414.75433254 -105.36296916 425.26378417 C-105.36087175 428.22786765 -105.36013273 431.19194866 -105.35973024 434.1560328 C-107.20191911 522.6703756 -107.20191911 522.6703756 -73.19286966 602.39217401 C-72.46583841 603.36283807 -71.73880716 604.33350213 -70.98974466 605.33358026 C-68.20501887 608.95988924 -68.20501887 608.95988924 -65.19286966 612.39217401 C-64.53286966 612.39217401 -63.87286966 612.39217401 -63.19286966 612.39217401 C-63.19286966 613.05217401 -63.19286966 613.71217401 -63.19286966 614.39217401 C-62.53286966 614.39217401 -61.87286966 614.39217401 -61.19286966 614.39217401 C-61.11036966 614.96967401 -61.02786966 615.54717401 -60.94286966 616.14217401 C-59.96688766 619.07012002 -58.55775743 620.44461937 -56.19286966 622.39217401 C-55.20286966 622.39217401 -54.21286966 622.39217401 -53.19286966 622.39217401 C-53.19286966 623.05217401 -53.19286966 623.71217401 -53.19286966 624.39217401 C-50.31098533 627.67432005 -48.44098534 629.4818635 -44.19286966 630.39217401 C-43.69786966 631.87717401 -43.69786966 631.87717401 -43.19286966 633.39217401 C-41.23586815 634.70905004 -41.23586815 634.70905004 -38.88036966 635.82967401 C-35.35979979 637.66794625 -33.00071209 639.58433158 -30.19286966 642.39217401 C-28.87286966 642.39217401 -27.55286966 642.39217401 -26.19286966 642.39217401 C-26.19286966 643.05217401 -26.19286966 643.71217401 -26.19286966 644.39217401 C19.85596923 667.62295829 70.57916004 666.54502319 120.92152238 666.59236264 C123.93230359 666.59533387 126.94308135 666.59944535 129.95386076 666.60386682 C139.45578628 666.61748142 148.95770348 666.62717624 158.45963806 666.63106871 C169.2755692 666.63552901 180.09137269 666.65300802 190.90726513 666.6820693 C199.36950459 666.70398452 207.83170895 666.71378861 216.29397637 666.71510983 C221.30062349 666.71613726 226.30714983 666.72158565 231.313766 666.73992944 C251.81252832 666.81066806 272.18924924 666.48153288 292.64135885 665.00447869 C293.5078631 664.9423867 294.37436735 664.8802947 295.2671293 664.81632113 C337.86558629 661.68959708 377.18926307 650.27895031 408.80713034 620.39217401 C409.61795065 619.64580682 410.42877096 618.89943963 411.26416159 618.13045526 C446.15386435 584.8890849 455.72366278 535.12094822 456.86957502 488.87190509 C457.13484403 474.90552471 457.092404 460.93438144 457.07578135 446.96612501 C457.07062719 441.25791477 457.07543844 435.54971014 457.07855368 429.84149957 C457.08216674 420.26438496 457.07746517 410.68730144 457.06787252 401.11019158 C457.05699632 390.12658913 457.0605184 379.14306102 457.07152534 368.15946037 C457.08067861 358.63487652 457.08184459 349.11031471 457.076648 339.58572787 C457.07357158 333.93847015 457.07299657 328.29124704 457.07972097 322.64399171 C458.12122693 267.82015344 458.12122693 267.82015344 447.80713034 214.39217401 C447.36898735 212.96308139 446.93290907 211.53335467 446.49853659 210.10311151 C443.25093983 199.63025878 439.14170969 189.9682786 433.80713034 180.39217401 C433.26644918 179.40652459 433.26644918 179.40652459 432.71484518 178.40096307 C426.29662851 166.88022198 418.16479022 157.62637526 408.80713034 148.39217401 C408.27829245 147.86220819 407.74945456 147.33224236 407.20459127 146.78621697 C384.49140871 124.18401088 354.68325262 113.40762968 323.80713034 107.39217401 C323.02225241 107.22942986 322.23737448 107.06668572 321.42871237 106.89900994 C310.0088218 104.56409745 298.57078353 104.09455946 286.95337057 103.82454705 C286.13643819 103.80425671 285.3195058 103.78396637 284.47781789 103.76306117 C264.18669012 103.26495477 243.89505982 103.22757732 223.59886622 103.22491693 C220.47704176 103.22419302 217.35522138 103.22203463 214.23339796 103.21941972 C203.2657038 103.21025835 192.29802156 103.20607411 181.3303237 103.20687127 C171.22360699 103.20747337 161.11694341 103.19687162 151.01024014 103.18112761 C142.22010003 103.16793849 133.42997709 103.16269191 124.63982719 103.16332668 C119.43869452 103.16357784 114.23760959 103.16094229 109.0364871 103.15014863 C37.9458963 102.71640646 37.9458963 102.71640646 -28.19286966 126.39217401 Z "
        fill="#BE5B89" transform="translate(208.19286966323853,-0.39217400550842285)" />
    <path
        d="M0 0 C5.26316316 0.00897344 10.52632502 0.00701932 15.78949428 0.00663924 C24.62508599 0.00756837 33.46064283 0.01614501 42.2962234 0.0299089 C52.39866524 0.04559179 62.50106898 0.05090762 72.60352212 0.05017334 C83.51159233 0.04948854 94.41964855 0.05648309 105.32771444 0.06561995 C108.40134035 0.06771435 111.47496388 0.06845598 114.54859042 0.06885886 C133.78405229 0.07385558 153.01716721 0.12653209 172.24820673 0.57570755 C173.84876866 0.61302952 175.4493814 0.64824929 177.05004203 0.68106592 C190.52397209 0.96719712 203.52569925 2.54141303 216.73201442 5.23571944 C218.32539313 5.52811462 219.91912833 5.81857579 221.51326442 6.10681319 C251.33273562 11.78135407 276.97365172 26.49084671 298.73201442 47.23571944 C299.40103786 47.86349288 300.07006129 48.49126632 300.75935817 49.13806319 C318.79201829 66.51647714 329.58135283 89.58556835 336.73201442 113.23571944 C337.01818629 114.17028975 337.30435817 115.10486007 337.59920192 116.06775069 C347.04295779 150.09447934 345.04229563 187.83445295 345.00066543 222.79609394 C344.99550853 228.50476622 345.00032312 234.21343293 345.00343776 239.92210555 C345.00704947 249.49743998 345.00235228 259.07274329 344.99275661 268.64807296 C344.98187441 279.6322842 344.98540738 290.61642113 344.99640942 301.60063058 C345.00555911 311.12606821 345.00673055 320.6514838 345.00153208 330.17692441 C344.99845454 335.8246943 344.99788404 341.47242956 345.00460505 347.12019706 C345.06623565 407.34432511 343.56175997 467.86728334 299.73201442 514.23571944 C298.61246364 515.45194991 298.61246364 515.45194991 297.47029567 516.69275069 C267.04078176 548.63116612 222.96919023 558.81092241 180.53767848 561.84582686 C179.63471679 561.91094667 178.7317551 561.97606647 177.80143094 562.0431596 C157.4524069 563.4774204 137.15347202 563.66448562 116.76219916 563.60576439 C111.72465283 563.59409898 106.68711197 563.59858327 101.64955592 563.60051131 C93.20923405 563.60138328 84.76899418 563.590546 76.32869411 563.57190108 C66.6889484 563.55072311 57.0493221 563.54723636 47.40955782 563.55346304 C37.97707282 563.55923459 28.54462817 563.55342266 19.112149 563.5422895 C15.16904113 563.53774786 11.22595878 563.5367225 7.28284907 563.53887534 C-12.25374956 563.54518965 -31.73909687 563.33940068 -51.25138402 562.29895186 C-52.03834928 562.25725202 -52.82531454 562.21555218 -53.63612723 562.17258871 C-82.756333 560.59030429 -112.46083965 555.63199365 -138.26798558 541.23571944 C-138.26798558 540.57571944 -138.26798558 539.91571944 -138.26798558 539.23571944 C-138.99888402 539.14161788 -139.72978246 539.04751632 -140.48282933 538.95056319 C-143.68527595 538.12861687 -145.30826521 536.90811162 -147.83048558 534.79821944 C-150.55091946 532.53983499 -153.03832611 530.69309412 -156.26798558 529.23571944 C-156.26798558 528.57571944 -156.26798558 527.91571944 -156.26798558 527.23571944 C-157.10329808 527.14290694 -157.10329808 527.14290694 -157.95548558 527.04821944 C-161.258666 525.88764254 -162.98693291 523.83358499 -165.26798558 521.23571944 C-165.26798558 520.57571944 -165.26798558 519.91571944 -165.26798558 519.23571944 C-165.84548558 519.15321944 -166.42298558 519.07071944 -167.01798558 518.98571944 C-169.94593159 518.00973744 -171.32043095 516.60060721 -173.26798558 514.23571944 C-173.26798558 513.24571944 -173.26798558 512.25571944 -173.26798558 511.23571944 C-173.92798558 511.23571944 -174.58798558 511.23571944 -175.26798558 511.23571944 C-175.26798558 510.57571944 -175.26798558 509.91571944 -175.26798558 509.23571944 C-175.92798558 509.23571944 -176.58798558 509.23571944 -177.26798558 509.23571944 C-207.66236048 475.98375374 -215.52239775 429.97894076 -216.81998754 386.55554366 C-216.84090227 385.86179381 -216.861817 385.16804396 -216.88336551 384.45327139 C-217.43556806 365.66531268 -217.43269058 346.8741992 -217.43524265 328.07965493 C-217.43596546 325.07223531 -217.43812208 322.06481995 -217.44073987 319.05740142 C-217.44991583 308.48711786 -217.45408414 297.9168467 -217.45328832 287.34655929 C-217.45268786 277.61663421 -217.46325371 267.88676462 -217.47903198 258.15685356 C-217.4922504 249.69286358 -217.4974664 241.22889144 -217.49683291 232.76489127 C-217.49658231 227.75805784 -217.4991835 222.75127407 -217.51001096 217.74445128 C-217.54806255 198.78781812 -217.45367794 179.87344758 -216.38639379 160.94226241 C-216.34804366 160.24013822 -216.30969354 159.53801403 -216.2701813 158.81461334 C-214.67107412 130.43214354 -208.60671842 102.0475494 -194.26798558 77.23571944 C-193.74833226 76.33635665 -193.74833226 76.33635665 -193.21818089 75.41882491 C-174.99986537 44.49102578 -146.82548571 23.08236759 -113.26798558 11.23571944 C-112.55706761 10.98451339 -111.84614964 10.73330733 -111.11368871 10.47448897 C-75.79001583 -1.65644825 -36.84331053 -0.07645931 0 0 Z M-45.49210668 51.14074874 C-46.77870242 51.20067581 -46.77870242 51.20067581 -48.09129 51.26181352 C-77.50820084 52.66442132 -107.72656006 57.69797619 -130.26798558 78.23571944 C-131.24509496 79.12001632 -132.22220433 80.00431319 -133.22892308 80.91540694 C-159.01632237 105.03253234 -164.57064078 138.79834546 -166.33732152 172.57165694 C-166.38080708 173.39390132 -166.42429264 174.2161457 -166.46909595 175.06330657 C-167.40533735 193.14277469 -167.56492395 211.19600174 -167.53663659 229.29599547 C-167.53140442 233.73057659 -167.53631447 238.16515148 -167.53940892 242.59973311 C-167.54300343 250.0417245 -167.53837392 257.48367564 -167.52872777 264.92566085 C-167.51908228 272.45140349 -167.51907809 279.97706671 -167.52872777 287.50280929 C-167.71555845 337.56759556 -167.71555845 337.56759556 -166.35782933 387.60681319 C-166.31766446 388.5056372 -166.27749959 389.4044612 -166.2361176 390.3305223 C-164.48805975 427.77354017 -156.3943039 460.60649887 -127.97355199 486.76843429 C-108.87903197 503.19529735 -82.82968121 508.08799149 -58.51798558 510.36071944 C-57.30755589 510.47407638 -57.30755589 510.47407638 -56.07267308 510.58972335 C-34.39483615 512.4365083 -12.69503481 512.39975273 9.0409677 512.40297651 C11.77767388 512.40369609 14.5143753 512.40584735 17.25108027 512.40847373 C26.87509923 512.41768761 36.49910448 512.42181442 46.1231277 512.42102218 C54.96654752 512.42042543 63.80990556 512.43090782 72.65330982 512.44676584 C80.34348527 512.46004333 88.03364108 512.46519767 95.72382784 512.46456677 C100.27272404 512.46431721 104.82156544 512.46685413 109.37044978 512.47774482 C128.5890479 512.52051396 147.74809838 512.24795747 166.94588161 511.29944015 C167.80203516 511.25735376 168.65818871 511.21526737 169.5402863 511.17190564 C200.96772824 509.59290257 233.51278885 506.58253429 257.73201442 484.23571944 C258.63306911 483.41458663 259.53412379 482.59345382 260.46248317 481.74743819 C290.6022411 453.02113098 293.67399697 411.3625242 294.79688525 371.95934224 C295.05993653 359.81806876 295.01744429 347.6712124 295.00066543 335.52780771 C294.99549409 330.58934294 295.0003275 325.65088445 295.00343776 320.71241927 C295.00704815 312.42142544 295.0023587 304.13046755 294.99275661 295.83947921 C294.98190312 286.36072364 294.98538704 276.88205438 294.99640942 267.40330094 C295.00559735 259.16102543 295.00671167 250.91877533 295.00153208 242.67649633 C294.99847126 237.7998042 294.99783406 232.92315206 295.00460505 228.04646277 C295.02728701 209.09983778 294.86713375 190.20551676 293.80135036 171.28479171 C293.75985755 170.54294249 293.71836475 169.80109328 293.6756146 169.03676379 C293.02242391 157.66557916 292.05480602 146.39967028 289.73201442 135.23571944 C289.59569606 134.57459151 289.4593777 133.91346358 289.31892848 133.23230147 C283.95342566 108.34405108 270.40034048 85.36821794 248.93391871 71.1392839 C246.23774965 69.43683851 243.49772679 67.82225212 240.73201442 66.23571944 C239.98951442 65.73556319 239.24701442 65.23540694 238.48201442 64.72009444 C234.30318947 62.4644787 229.87696753 61.15556754 225.35701442 59.73571944 C224.45595973 59.44052413 223.55490504 59.14532882 222.62654567 58.84118819 C209.38588095 54.63750862 196.28108521 52.77372805 182.48201442 52.11071944 C181.12128363 52.03749188 179.7606058 51.96327349 178.39998317 51.88806319 C175.67643249 51.73872215 172.9526025 51.60043791 170.22813869 51.46891952 C167.50285866 51.3334245 164.7855934 51.1699915 162.06303859 50.98091292 C145.34557216 49.84784498 128.57446606 50.07095367 111.8277781 50.06846237 C109.10347842 50.06774358 106.37918353 50.06559366 103.65488505 50.06296515 C94.07626225 50.05374433 84.49765323 50.04962518 74.91902614 50.05041671 C66.1154105 50.05101304 57.31185701 50.04054078 48.50825703 50.02467304 C40.85633813 50.01139351 33.20443898 50.00624132 25.55250871 50.00687212 C21.02482137 50.0071217 16.49718908 50.00458359 11.96951365 49.99369407 C-7.20896936 49.9508789 -26.33327232 50.22209376 -45.49210668 51.14074874 Z "
        fill="#FEFEFE" transform="translate(320.2679855823517,102.76428055763245)" />
    <path
        d="M0 0 C0.79954102 0.25700684 1.59908203 0.51401367 2.42285156 0.77880859 C38.52359802 12.45171768 69.73455733 37.32828324 87.34057617 71.19677734 C90.34060473 77.15151894 93.00769094 83.13534298 95.11328125 89.47265625 C96.01447032 92.15601652 96.01447032 92.15601652 97.46875 95.265625 C103.280978 108.75513145 103.39956574 123.80676379 103.4375 138.25 C103.44648819 139.37781387 103.44648819 139.37781387 103.45565796 140.52841187 C103.53681045 155.84036483 101.4178394 170.33427784 96.4375 184.875 C96.09525391 185.88457764 95.75300781 186.89415527 95.40039062 187.93432617 C90.42030214 202.07835654 83.49169473 215.34872702 74 227 C73.5757373 227.52287598 73.15147461 228.04575195 72.71435547 228.58447266 C56.34344639 248.65410222 37.57241614 262.5985048 13.91430664 273.14355469 C12.18372147 273.9178045 10.46779475 274.72461692 8.75390625 275.53515625 C3.63865783 277.70471212 -1.79778977 278.8443405 -7.1875 280.125 C-8.24775391 280.38925781 -9.30800781 280.65351562 -10.40039062 280.92578125 C-45.1171881 289.26119758 -83.94696654 282.66886533 -114.515625 264.359375 C-151.50384658 241.36275536 -173.74195149 207.39143105 -183.60644531 165.41967773 C-185.19359252 157.7580981 -185.3070425 150.24141058 -185.25 142.4375 C-185.24723053 141.78002777 -185.24446106 141.12255554 -185.24160767 140.44515991 C-185.1701029 125.94817411 -184.53194488 111.87169216 -180 98 C-179.66226563 96.865625 -179.32453125 95.73125 -178.9765625 94.5625 C-167.24201098 56.75991791 -139.88985357 27.36521217 -105.35498047 8.90136719 C-74.56922607 -7.05711758 -32.98366795 -11.27352233 0 0 Z "
        fill="#FEFDFE" transform="translate(425,245)" />
    <path
        d="M0 0 C0.96292969 0.41894531 1.92585937 0.83789062 2.91796875 1.26953125 C23.34675465 10.63384922 40.24062876 28.34110555 49 49 C49.33515625 49.76828125 49.6703125 50.5365625 50.015625 51.328125 C57.94456914 71.09131411 58.29511469 92.8417467 52 113 C51.773125 113.82371094 51.54625 114.64742188 51.3125 115.49609375 C44.55031385 138.52979031 27.5998953 157.32910435 7 169 C-14.81392141 180.76789224 -40.05533399 183.52237231 -64 177 C-88.15957238 169.5935473 -107.34801642 153.86125054 -120 132 C-120.59941406 130.99710938 -121.19882812 129.99421875 -121.81640625 128.9609375 C-133.24755028 108.27130748 -135.16498079 82.96516383 -129 60.328125 C-121.65579462 35.87771502 -105.22698131 15.44819246 -83 3 C-57.00092732 -10.45972425 -26.7767775 -12.64559587 0 0 Z "
        fill="#E03A66" transform="translate(422,298)" />
    <path
        d="M0 0 C2.49181953 1.46442317 4.68196018 3.03442552 6.9140625 4.8671875 C7.56761719 5.34671875 8.22117187 5.82625 8.89453125 6.3203125 C15.11773053 11.15025821 18.81948536 17.31207521 20.9140625 24.8671875 C22.24770231 36.89559272 20.53262609 45.38825508 13.15625 55.20703125 C6.61555477 62.55505079 -1.67835926 65.93134537 -11.38549805 66.5078125 C-21.09972956 66.71475053 -28.60369952 64.42727455 -36.19921875 58.109375 C-43.31103968 50.83003795 -46.54543609 41.71764292 -46.6484375 31.6796875 C-46.4595989 22.09388037 -43.56126838 15.692731 -37.078125 8.72265625 C-27.17638071 -0.49955657 -13.09383026 -4.80659592 0 0 Z "
        fill="#FEFCFD" transform="translate(547.0859375,201.1328125)" />
    <path
        d="M0 0 C0.66 0.33 1.32 0.66 2 1 C-8.33333333 11.33333333 -18.66666667 21.66666667 -29 32 C-25.16999825 23.49543202 -17.76911875 16.59089336 -11.25 10.0625 C-10.70754639 9.51924072 -10.16509277 8.97598145 -9.60620117 8.41625977 C-6.54775651 5.40006529 -3.41179761 2.62202965 0 0 Z "
        fill="#6B72D8" transform="translate(63,37)" />
</svg>